<svg xmlns="http://www.w3.org/2000/svg" viewBox="0 0 304 264"><g fill="none" stroke-width="2"><path stroke="#9ea3a3" d="M220.5 44.4a.47.47 0 0 0 0-.82l-69.1-39.8a.47.47 0 0 0-.46 0L81.81 43.6a.47.47 0 0 0 0 .82l69.14 39.77a.47.47 0 0 0 .46 0L220.5 44.4M146 94.11a.41.41 0 0 0-.21-.36L76.61 53.94a.41.41 0 0 0-.61.36v79.82a.41.41 0 0 0 .21.36l68.9 39.61a.41.41 0 0 0 .61-.36l.28-79.62" vector-effect="non-scaling-stroke"/><path stroke="#addc9d" d="M157.07 123.59c.46 8.97-.35 21.44-.33 27.01q.04 11.51 0 22.99a.49.48 74.8 0 0 .73.42l68.99-39.72q.36-.21.36-.63l-.3-79.64a.35.35 0 0 0-.52-.3L157.15 93.4q-.48.27-.47.83c.14 9.8-.12 19.29.39 29.36" vector-effect="non-scaling-stroke"/><path stroke="#9ea3a3" d="m94.22 197.76.05-13.48q0-.48-.49-.49l-9.65-.13q-.39 0-.39.39l.02 67.28q0 .56.56.55l9.47-.19q.48-.01.47-.48-.04-11.32 0-22.6.06-12.95 1.72-17.85c3.44-10.16 11.67-17.54 23.09-17.27q.59.01.58-.57l-.14-9.83q-.01-.54-.55-.52-16.82.59-24.36 15.28a.2.2 0 0 1-.38-.09M71.29 230.32l-10.19-.25q-.53-.01-.75.47c-4.26 9.79-13.03 14.06-23.48 12.38-30.25-4.86-24.83-54.4 7.35-50.33q10.58 1.34 16.16 12.44a.92.92 0 0 0 .87.51l9.05-.36a1.45 1.45 0 0 0 1.24-2.08q-10.54-22-35.13-20.26c-40 2.82-40.44 65.91-1 69.94 15.02 1.54 28.46-4.55 35.2-18.46q.79-1.63 1.1-3.49.08-.5-.42-.51M191.01 211.75c-1.09-15.87-14.92-27.6-29.94-28.92-50.38-4.44-49.97 74.67 1.19 70.08q18.6-1.67 27.08-20.31.28-.6-.38-.6h-10.72q-.52 0-.77.45c-3.44 6.16-8.58 9.59-15.69 10.56-14.85 2.03-23.72-6.77-27.31-20.27a.59.58 82.4 0 1 .56-.74h55.75q.56 0 .63-.55c.43-3.24-.23-7.25-.4-9.7" vector-effect="non-scaling-stroke"/><path stroke="#9ea3a3" d="M230.32 182.86c-40.97 2.7-41.18 67.82 1.27 70.08 47.94 2.56 48.64-73.36-1.27-70.08M297.015 195.136a9.69 9.69 0 0 0-9.639-9.74l-1.88-.01a9.69 9.69 0 0 0-9.74 9.638l-.011 2.12a9.69 9.69 0 0 0 9.639 9.74l1.88.01a9.69 9.69 0 0 0 9.74-9.638l.011-2.12M180 211.44c-3.54-25.12-40.26-25.46-45.12.1q-.09.46.37.46h44.26q.57 0 .49-.56" vector-effect="non-scaling-stroke"/><path stroke="#9ea3a3" d="M239.04 242.6c23.51-5.3 23.62-44.64.73-49.41q-17.48-3.64-25.96 10.72c-3.38 5.71-4.07 14.97-2.51 21.24 3.23 13.08 14.38 20.47 27.74 17.45M295.49 196.17a9.01 9.01 0 0 0-9.01-9.01 9.01 9.01 0 0 0-9.01 9.01 9.01 9.01 0 0 0 9.01 9.01 9.01 9.01 0 0 0 9.01-9.01" vector-effect="non-scaling-stroke"/><path stroke="#9ea3a3" d="M290.66 196.04q.82-.32 1.15-1.37.14-.42.14-.86c-.02-4.7-6.51-3.89-9.64-3.79a.64.64 0 0 0-.62.64l.09 10.74q0 .62.61.71l1.17.17q.69.1.69-.6v-3.06q0-.69.69-.65l3.19.16q.76.04.88.79l.36 2.35q.08.5.53.74c3.22 1.7 1.52-3.9.53-5.11q-.48-.59.23-.86" vector-effect="non-scaling-stroke"/><path stroke="#9ea3a3" d="M284.56 194.25q-.48.52-.28 1.04.18.49.7.47 1.87-.04 3.72-.58 2.3-.66.37-2.08-1.8-1.33-4.11-.81-.47.1-.65.54-.21.51.17.77.42.28.08.65" vector-effect="non-scaling-stroke"/></g><path fill="#fff" d="M0 0h304v264H0V0Zm220.5 44.4a.47.47 0 0 0 0-.82l-69.1-39.8a.47.47 0 0 0-.46 0L81.81 43.6a.47.47 0 0 0 0 .82l69.14 39.77a.47.47 0 0 0 .46 0L220.5 44.4ZM146 94.11a.41.41 0 0 0-.21-.36L76.61 53.94a.41.41 0 0 0-.61.36v79.82a.41.41 0 0 0 .21.36l68.9 39.61a.41.41 0 0 0 .61-.36l.28-79.62Zm11.07 29.48c.46 8.97-.35 21.44-.33 27.01q.04 11.51 0 22.99a.49.48 74.8 0 0 .73.42l68.99-39.72q.36-.21.36-.63l-.3-79.64a.35.35 0 0 0-.52-.3L157.15 93.4q-.48.27-.47.83c.14 9.8-.12 19.29.39 29.36Zm-62.85 74.17.05-13.48q0-.48-.49-.49l-9.65-.13q-.39 0-.39.39l.02 67.28q0 .56.56.55l9.47-.19q.48-.01.47-.48-.04-11.32 0-22.6.06-12.95 1.72-17.85c3.44-10.16 11.67-17.54 23.09-17.27q.59.01.58-.57l-.14-9.83q-.01-.54-.55-.52-16.82.59-24.36 15.28a.2.2 0 0 1-.38-.09Zm-22.93 32.56-10.19-.25q-.53-.01-.75.47c-4.26 9.79-13.03 14.06-23.48 12.38-30.25-4.86-24.83-54.4 7.35-50.33q10.58 1.34 16.16 12.44a.92.92 0 0 0 .87.51l9.05-.36a1.45 1.45 0 0 0 1.24-2.08q-10.54-22-35.13-20.26c-40 2.82-40.44 65.91-1 69.94 15.02 1.54 28.46-4.55 35.2-18.46q.79-1.63 1.1-3.49.08-.5-.42-.51Zm119.72-18.57c-1.09-15.87-14.92-27.6-29.94-28.92-50.38-4.44-49.97 74.67 1.19 70.08q18.6-1.67 27.08-20.31.28-.6-.38-.6h-10.72q-.52 0-.77.45c-3.44 6.16-8.58 9.59-15.69 10.56-14.85 2.03-23.72-6.77-27.31-20.27a.59.58 82.4 0 1 .56-.74h55.75q.56 0 .63-.55c.43-3.24-.23-7.25-.4-9.7Zm39.31-28.89c-40.97 2.7-41.18 67.82 1.27 70.08 47.94 2.56 48.64-73.36-1.27-70.08Zm66.695 12.276a9.69 9.69 0 0 0-9.639-9.74l-1.88-.01a9.69 9.69 0 0 0-9.74 9.638l-.011 2.12a9.69 9.69 0 0 0 9.639 9.74l1.88.01a9.69 9.69 0 0 0 9.74-9.638l.011-2.12Z"/><path fill="#3c4646" d="m220.5 44.4-69.09 39.79a.47.47 0 0 1-.46 0L81.81 44.42a.47.47 0 0 1 0-.82l69.13-39.82a.47.47 0 0 1 .46 0l69.1 39.8a.47.47 0 0 1 0 .82ZM146 94.11l-.28 79.62a.41.41 0 0 1-.61.36l-68.9-39.61a.41.41 0 0 1-.21-.36V54.3a.41.41 0 0 1 .61-.36l69.18 39.81a.41.41 0 0 1 .21.36Z"/><path fill="#5bb83b" d="M157.07 123.59c-.51-10.07-.25-19.56-.39-29.36q-.01-.56.47-.83L226 53.72a.35.35 0 0 1 .52.3l.3 79.64q0 .42-.36.63l-68.99 39.72a.49.48 74.8 0 1-.73-.42q.04-11.48 0-22.99c-.02-5.57.79-18.04.33-27.01Z"/><path fill="#3c4646" d="M94.22 197.76a.2.2 0 0 0 .38.09q7.54-14.69 24.36-15.28.54-.02.55.52l.14 9.83q.01.58-.58.57c-11.42-.27-19.65 7.11-23.09 17.27q-1.66 4.9-1.72 17.85-.04 11.28 0 22.6.01.47-.47.48l-9.47.19q-.56.01-.56-.55l-.02-67.28q0-.39.39-.39l9.65.13q.49.01.49.49l-.05 13.48ZM61.1 230.07l10.19.25q.5.01.42.51-.31 1.86-1.1 3.49c-6.74 13.91-20.18 20-35.2 18.46-39.44-4.03-39-67.12 1-69.94Q61 181.1 71.54 203.1a1.45 1.45 0 0 1-1.24 2.08l-9.05.36a.92.92 0 0 1-.87-.51q-5.58-11.1-16.16-12.44c-32.18-4.07-37.6 45.47-7.35 50.33 10.45 1.68 19.22-2.59 23.48-12.38q.22-.48.75-.47ZM191.01 211.75c.17 2.45.83 6.46.4 9.7q-.07.55-.63.55h-55.75a.59.58 82.4 0 0-.56.74c3.59 13.5 12.46 22.3 27.31 20.27 7.11-.97 12.25-4.4 15.69-10.56q.25-.45.77-.45h10.72q.66 0 .38.6-8.48 18.64-27.08 20.31c-51.16 4.59-51.57-74.52-1.19-70.08 15.02 1.32 28.85 13.05 29.94 28.92Zm-11.01-.31c-3.54-25.12-40.26-25.46-45.12.1q-.09.46.37.46h44.26q.57 0 .49-.56Z"/><path fill="#3c4646" d="M231.59 252.94c-42.45-2.26-42.24-67.38-1.27-70.08 49.91-3.28 49.21 72.64 1.27 70.08Zm7.45-10.34c23.51-5.3 23.62-44.64.73-49.41q-17.48-3.64-25.96 10.72c-3.38 5.71-4.07 14.97-2.51 21.24 3.23 13.08 14.38 20.47 27.74 17.45ZM297.004 197.256a9.69 9.69 0 0 1-9.74 9.639l-1.88-.01a9.69 9.69 0 0 1-9.64-9.74l.012-2.12a9.69 9.69 0 0 1 9.74-9.64l1.88.01a9.69 9.69 0 0 1 9.64 9.74l-.012 2.12Zm-1.514-1.086a9.01 9.01 0 0 0-9.01-9.01 9.01 9.01 0 0 0-9.01 9.01 9.01 9.01 0 0 0 9.01 9.01 9.01 9.01 0 0 0 9.01-9.01Z"/><path fill="#fff" d="M295.49 196.17a9.01 9.01 0 0 1-9.01 9.01 9.01 9.01 0 0 1-9.01-9.01 9.01 9.01 0 0 1 9.01-9.01 9.01 9.01 0 0 1 9.01 9.01Zm-4.83-.13q.82-.32 1.15-1.37.14-.42.14-.86c-.02-4.7-6.51-3.89-9.64-3.79a.64.64 0 0 0-.62.64l.09 10.74q0 .62.61.71l1.17.17q.69.1.69-.6v-3.06q0-.69.69-.65l3.19.16q.76.04.88.79l.36 2.35q.08.5.53.74c3.22 1.7 1.52-3.9.53-5.11q-.48-.59.23-.86Z"/><path fill="#3c4646" d="M290.43 196.9c.99 1.21 2.69 6.81-.53 5.11q-.45-.24-.53-.74l-.36-2.35q-.12-.75-.88-.79l-3.19-.16q-.69-.04-.69.65v3.06q0 .7-.69.6l-1.17-.17q-.61-.09-.61-.71l-.09-10.74a.64.64 0 0 1 .62-.64c3.13-.1 9.62-.91 9.64 3.79q0 .44-.14.86-.33 1.05-1.15 1.37-.71.27-.23.86Zm-5.87-2.65q-.48.52-.28 1.04.18.49.7.47 1.87-.04 3.72-.58 2.3-.66.37-2.08-1.8-1.33-4.11-.81-.47.1-.65.54-.21.51.17.77.42.28.08.65Z"/><path fill="#fff" d="M284.48 193.6q-.38-.26-.17-.77.18-.44.65-.54 2.31-.52 4.11.81 1.93 1.42-.37 2.08-1.85.54-3.72.58-.52.02-.7-.47-.2-.52.28-1.04.34-.37-.08-.65ZM134.88 211.54c4.86-25.56 41.58-25.22 45.12-.1q.08.56-.49.56h-44.26q-.46 0-.37-.46ZM239.77 193.19c22.89 4.77 22.78 44.11-.73 49.41-13.36 3.02-24.51-4.37-27.74-17.45-1.56-6.27-.87-15.53 2.51-21.24q8.48-14.36 25.96-10.72Z"/></svg>