<svg xmlns="http://www.w3.org/2000/svg" viewBox="0 0 1448 1448"><g fill="none" stroke-width="2"><path stroke="#6d6d6d" d="M582.39 524.41q-38.33 40.59-80.17 77.32" vector-effect="non-scaling-stroke"/><path stroke="#4a4c4e" d="M502.22 601.73q-40.48 35.34-85.29 64.7" vector-effect="non-scaling-stroke"/><path stroke="#3f3f41" d="M416.93 666.43q-28.43 18.36-58.69 33.34" vector-effect="non-scaling-stroke"/><path stroke="#343335" d="M358.24 699.77q-23.36 11.41-47.76 20.49" vector-effect="non-scaling-stroke"/><path stroke="#282828" d="M310.48 720.26q-43.77 15.97-89.49 24.1a1.32 1.32 0 0 0-1.06 1.08l-.54 3.22q-.06.37.22.63 3.17 2.98 7.08 4.68a.79.79 0 0 1 0 1.45l-3.01 1.29" vector-effect="non-scaling-stroke"/><path stroke="#343335" d="M223.68 756.71c-33.72.84-60.73-.46-101.37-.13q-7.94.07-20.09 1.61" vector-effect="non-scaling-stroke"/><path stroke="#6d6d6d" d="m102.22 758.19-20.99 1.37" vector-effect="non-scaling-stroke"/><path stroke="#3f3f41" d="m81.23 759.56-4.99.56" vector-effect="non-scaling-stroke"/><path stroke="#6d6d6d" d="m76.24 760.12-9.62.67q-.06.01-.08.07-.05.14-.05.25-.02.25.24.28L86 763.1" vector-effect="non-scaling-stroke"/><path stroke="gray" d="M86 763.1q34.76 3.77 68.96 11.08" vector-effect="non-scaling-stroke"/><path stroke="#6d6d6d" d="M154.96 774.18c33.2 7.44 65.13 16.99 96.49 30.16" vector-effect="non-scaling-stroke"/><path stroke="#4a4c4e" d="M251.45 804.34q25.15 10.78 48.49 24.77" vector-effect="non-scaling-stroke"/><path stroke="#3f3f41" d="M299.94 829.11q20.78 12.58 39.23 28.14" vector-effect="non-scaling-stroke"/><path stroke="#343335" d="M339.17 857.25q12.73 10.81 23.8 23" vector-effect="non-scaling-stroke"/><path stroke="#282828" d="M362.97 880.25q18.75 20.51 31.98 45.2a1.49 1.48-44.7 0 0 2.61.01q1.49-2.69 3.38-5.64c1.9-2.98 5.61-6.25 7.25-10.61a2.66 2.66 0 0 1 2.66-1.71c2.48.15 1.92 31.9 1.78 35.14q-.02.5.28.91.42.59.14 1.22-.15.36-.16.75-.38 14.59 1.14 29.07" vector-effect="non-scaling-stroke"/><path stroke="#343335" d="m414.03 974.59 1.84 8.41" vector-effect="non-scaling-stroke"/><path stroke="#4a4c4e" d="m415.87 983 1.88 11.74" vector-effect="non-scaling-stroke"/><path stroke="#282828" d="m417.75 994.74.93 9.25" vector-effect="non-scaling-stroke"/><path stroke="#4a4c4e" d="m418.68 1003.99 1.01 4.03" vector-effect="non-scaling-stroke"/><path stroke="#6d6d6d" d="M419.69 1008.02q.34 6.15.91 12.33c.23 2.5-.01 5.76.22 8.66a.25.24-45.9 0 0 .49-.01l1.96-30.76" vector-effect="non-scaling-stroke"/><path stroke="gray" d="m423.27 998.24 4.19-31.23" vector-effect="non-scaling-stroke"/><path stroke="#3f3f41" d="M427.46 967.01q1.43-3.31 1.18-6.83" vector-effect="non-scaling-stroke"/><path stroke="gray" d="M428.64 960.18q.45-.26.45-1.64" vector-effect="non-scaling-stroke"/><path stroke="#3f3f41" d="M429.09 958.54q2.09-7.08 2.66-14.57" vector-effect="non-scaling-stroke"/><path stroke="gray" d="m431.75 943.97.82-3.69" vector-effect="non-scaling-stroke"/><path stroke="#282828" d="M432.57 940.28q.98-1.81.98-4.26" vector-effect="non-scaling-stroke"/><path stroke="gray" d="m433.55 936.02 2.07-9.48" vector-effect="non-scaling-stroke"/><path stroke="#3f3f41" d="m435.62 926.54 1.88-8.39" vector-effect="non-scaling-stroke"/><path stroke="gray" d="M437.5 918.15q.81-1.81.72-3.91" vector-effect="non-scaling-stroke"/><path stroke="#6d6d6d" d="m438.22 914.24 3.47-12.64" vector-effect="non-scaling-stroke"/><path stroke="#3f3f41" d="m441.69 901.6 2.56-9.61" vector-effect="non-scaling-stroke"/><path stroke="#343335" d="m444.25 891.99 1.36-4.44" vector-effect="non-scaling-stroke"/><path stroke="#6d6d6d" d="m445.61 887.55 1.79-6.97" vector-effect="non-scaling-stroke"/><path stroke="#343335" d="m447.4 880.58 1.77-6.41" vector-effect="non-scaling-stroke"/><path stroke="#6d6d6d" d="M449.17 874.17q.4.21.42-1.34" vector-effect="non-scaling-stroke"/><path stroke="#343335" d="m449.59 872.83 2.28-7.64" vector-effect="non-scaling-stroke"/><path stroke="#6d6d6d" d="m451.87 865.19 1.43-4.44" vector-effect="non-scaling-stroke"/><path stroke="#343335" d="M453.3 860.75q1.11-2.06 1.22-4.6" vector-effect="non-scaling-stroke"/><path stroke="#6d6d6d" d="m454.52 856.15 19.56-58.09" vector-effect="non-scaling-stroke"/><path stroke="#4a4c4e" d="M474.08 798.06q17.42-47.36 38.01-93.5" vector-effect="non-scaling-stroke"/><path stroke="#3f3f41" d="m512.09 704.56 29.76-63.23" vector-effect="non-scaling-stroke"/><path stroke="#343335" d="m541.85 641.33 16.74-32.75" vector-effect="non-scaling-stroke"/><path stroke="#282828" d="M558.59 608.58Q576.98 573.6 596.5 540a.94.94 0 0 0-.72-1.41q-3.4-.35-6.82-.79-.57-.07-.69-.63-.23-1.06.42-2.72" vector-effect="non-scaling-stroke"/><path stroke="#6d6d6d" d="m588.69 534.45 1.13-1.55" vector-effect="non-scaling-stroke"/><path stroke="gray" d="m589.82 532.9 85.1-115.22q.08-.12-.06-.14-.19-.04-.27.05-43.94 55.32-92.2 106.82" vector-effect="non-scaling-stroke"/><path stroke="#ececec" d="m589.82 532.9-6.66-6.39q-.3-.28-.4-.68l-.37-1.42" vector-effect="non-scaling-stroke"/><path stroke="#959595" d="m588.69 534.45-51.74 69.95" vector-effect="non-scaling-stroke"/><path stroke="#a0a0a1" d="m536.95 604.4-15.46 20.89" vector-effect="non-scaling-stroke"/><path stroke="#b7b9ba" d="M521.49 625.29q-.91-.62-1.48.41-.18.33-.39.02-2.07-3.09-4.65-5.83-.35-.37-.47-.86c-1.18-4.52-2.87-7.38-6.89-10.22q-2.88-2.03-5.05-4.86-.32-.41-.1-.89.37-.81-.24-1.33" vector-effect="non-scaling-stroke"/><path stroke="#737276" d="m541.85 641.33-1.55-1.74q-.35-.4-.89-.41l-27.78-.6" vector-effect="non-scaling-stroke"/><path stroke="#7e7f82" d="m521.49 625.29-9.86 13.29" vector-effect="non-scaling-stroke"/><path stroke="#898b8f" d="m511.63 638.58-58.92 79.4q-.92 1.24-2.29.52c-5.5-2.91-3.42-7.42-6.6-11.43a1.36 1.34-64.8 0 1-.3-.85c-.03-5.08-2.73-6.75-4.1-10.96q-1.7-5.21-5.26-9.38c-4.17-4.89-11.64-2.42-13.74-10.24-.89-3.33-2.35-5.2-3.83-8.01q-.05-.1-.02-.09l.26.14q.16.09.16-.1l-.06-1.15" vector-effect="non-scaling-stroke"/><path stroke="#5c5b5d" d="M558.59 608.58q.25-3.23-2.55-3.27c-6.02-.07-15.62 1.1-19.09-.91" vector-effect="non-scaling-stroke"/><path stroke="#898b8f" d="M512.09 704.56c-4.14-4.17-12.15-.58-17.36-1.97q-.46-.13-.9.05c-1.81.74-6.06.05-8.34.31q-.47.05-.88-.19-1.14-.66-2.39.01a1.06 1.03 41.7 0 1-.89.04q-.72-.31-1.51-.23-7.02.73-14.03-.23-.51-.07-.81.34l-38.67 52.33" vector-effect="non-scaling-stroke"/><path stroke="#bfbec1" d="M426.31 755.02c-.9 1.45-1.56 2.46-3.42 2.63-11.33 1.05-25.9.39-44.65.3" vector-effect="non-scaling-stroke"/><path stroke="#737276" d="M378.24 757.95c3.1-.07 6.22-1.03 8.84-1.17q2.22-.12 4.4-.06a2.58 2.58 0 0 0 1.88-4.43q-2.69-2.62-4.64-5.65a2.54 2.44-66.6 0 1-.35-.94c-.74-5.07-3.97-7.2-5.98-10.78q-2.38-4.22-4.17-8.74c-.56-1.43-1.34-1.81-2.72-2.17-2.77-.71-1.92-1.62-2.24-3.81q-.5-3.39-1.91-6.56a1.27 1.27 0 0 0-.68-.65c-3.64-1.48-8.23-1.17-10.39-4.99q-1.88-3.32-2.69-7.09-.04-.23.17-.32.26-.11.51-.19.32-.11.14-.38l-.17-.25" vector-effect="non-scaling-stroke"/><path stroke="#ececec" d="M426.25 795.3q.39 1.84.24 4.7c-.89 16.99-.42 34.12-.98 51.12-.04 1.34-.84 2.73-.39 4.38q.09.33-.1.63l-.36.54q-.23.35-.01.71l1.2 1.97q.32.52-.18.86-.8.55-.7 1.51.04.39-.23.68-.69.73-.99.1a.29.22 35.3 0 0-.51.02q.24 1.72-1.52 1.93-.34.05-.37.39-.26 3.05.12 6.1.11.9.23 0l.1-.73q.06-.47.46-.21.34.21.31.69a.63.63 0 0 0 .61.67q2.1.07 2.02 2.29-.01.39-.3.66-.4.38-.94.46a.46.46 0 0 1-.5-.62q.27-.73.22-.92a1.27 1.21 38.9 0 0-2.45.21l-.14 21.87q-.01.76.7.47l1.73-.72a.29.29 0 0 0 .07-.5q-.24-.18-.47-.35a.44.44 0 0 1-.05-.66l.56-.56q.39-.38-.1-.63-.21-.11-.48-.13-.83-.06-.28-.67l.56-.63q.15-.17-.07-.23l-.93-.27a.48.48 0 0 1-.21-.79q.58-.59.24-.83-.43-.3-.36-.82.18-1.21.68-2.26a.34.29 65.6 0 1 .56.26q-.06.46.36.78.06.05.06.01l-.27-6.11q-.02-.48.44-.61.64-.16.71.45.72 6.15.84 7.88a3.86 3.71 48.6 0 1-.04.95c-.47 2.94 1.93 8.27 3.7 10.05a1.54 1.5 18.6 0 1 .41.8q.71 4.12 3.24 7.38.31.4.31.91v.54q0 .28.27.24l.34-.05q.49-.07.28-.51-.78-1.62.9-1.91.53-.08.56-.62l.21-4.32q.03-.62.65-.62l3.02.03q.5 0 .52.5c.18 4.56-1.32 8.02-1.53 12.48" vector-effect="non-scaling-stroke"/><path stroke="#bfbec1" d="m437.5 918.15-1.04 3.95q-.12.47-.41.87-1.06 1.48-.43 3.57" vector-effect="non-scaling-stroke"/><path stroke="#a8a8a8" d="M433.55 936.02q-1.14 2.13-.98 4.26" vector-effect="non-scaling-stroke"/><path stroke="#bfbec1" d="M431.75 943.97q-.96 2.14-1.28 4.35c-.5 3.5-1.81 6.48-1.38 10.22M428.64 960.18l-1.18 6.83" vector-effect="non-scaling-stroke"/><path stroke="#ececec" d="M423.27 998.24q-.32.51-.83.55a.55.55 0 0 1-.59-.54q-.09-6.3-.16-12.61c-.05-5.26.43-13.54.05-20.35q-.09-1.54-.16 0c-.43 8.5-.05 39.67-.97 39.6q-.43-.03-.37-.45.18-1.42-.4-2.21" vector-effect="non-scaling-stroke"/><path stroke="#cacccd" d="M419.84 1002.23q-.67-.48-.74-2.01" vector-effect="non-scaling-stroke"/><path stroke="#a8a8a8" d="m419.1 1000.22-.18-1.3" vector-effect="non-scaling-stroke"/><path stroke="#cacccd" d="m418.92 998.92-.37-26.38" vector-effect="non-scaling-stroke"/><path stroke="#ececec" d="M418.55 972.54q0-9.66-.09-19.24c-.02-2.92-1.02-6.84-.19-10.57a1.73 1.71 42.3 0 0-.05-.91q-1.18-3.48 1.03-6.04.3-.35.29-.81-.28-14.23-.07-28.46c.14-9.04-.87-20.97.24-31.63q.05-.48-.13-.93-.59-1.53-.13-3.07.13-.43 0-.86-.46-1.47-.03-2.94.15-.49.04-.99-.35-1.62.01-3.24.09-.41-.01-.82-.17-.67-.06-1.7.24-2.28-.3-4.94c-1.83-9.12-.47-18.94-.96-28.21-.37-6.95-.08-13.57-.53-20.79-.16-2.54.49-8.14-.46-10.19a1.98 1.97-56.2 0 1-.19-.97c.5-10.4 1.13-18.19-.38-27.3q-.2-1.21.21-4.54a.59.59 0 0 0-.44-.64q-1.74-.42-3.37-.16" vector-effect="non-scaling-stroke"/><path stroke="#bfbec1" d="m412.98 762.59-4.47-.24" vector-effect="non-scaling-stroke"/><path stroke="#ececec" d="M408.51 762.35q-14.19-.21-28.36-.46c-5.37-.1-13.68.65-20.66-.17q-.49-.06-.83-.43-1.17-1.26-1.5-3.46" vector-effect="non-scaling-stroke"/><path stroke="#b3b3b4" d="m378.24 757.95-21.08-.12" vector-effect="non-scaling-stroke"/><path stroke="#a0a0a1" d="m357.16 757.83-33.15-.19" vector-effect="non-scaling-stroke"/><path stroke="#5c5b5d" d="m324.01 757.64 12.32-1.97q.56-.09.56-.66v-2.82q0-.56-.48-.84c-5.12-2.94-7.84-7.36-11.9-10.67q-3.79-3.1-7.68-6.15a1.58 1.58 0 0 1-.56-.9q-1.33-6.31-5.44-11.31-.33-.41-.34-.93l-.01-1.13" vector-effect="non-scaling-stroke"/><path stroke="#b7b9ba" d="m474.08 798.06-.53.21q-.34.13-.33-.23c.03-1.62-2.9-1.74-4.07-1.83q-.48-.04-.77.36-.66.9-1.65.54a.95.93 31.6 0 0-.97.22c-2.59 2.64-16.87-.84-24.75 1.93q-9.33 3.27-14.76-3.96" vector-effect="non-scaling-stroke"/><path stroke="#cacccd" d="m426.25 795.3.06-40.28" vector-effect="non-scaling-stroke"/><path stroke="#acabae" d="M408.51 762.35q-2.58.12-5.03.52c-2.99.48-6.37-.38-8.97-.31q-11.99.33-23.97.23c-2.14-.01-4.69.63-7.13.54-4.46-.17-8.06.56-12.25.52" vector-effect="non-scaling-stroke"/><path stroke="#b7b9ba" d="m351.16 763.85-47.91.3a.59.56 18.7 0 0-.45.21c-.59.68-17.87.65-19.94.64q-.51 0-.76.44-1.97 3.55-4.9 6.39-.47.45.18.43.16-.01.31-.01.61-.01.31.53-3.6 6.32-7.15 12.66-1.94 3.47-4.56 6.05c-4.06 3.98-7.43 6.58-10.56 12.31q-.24.44-.74.45l-3.54.09" vector-effect="non-scaling-stroke"/><path stroke="#ececec" d="m154.96 774.18 4.23.05q.45 0 .69-.38 1.27-2.07.82-4.55a1.58 1.53-37.2 0 1 .15-.98c2.82-5.43 6.94-4.26 12.25-4.64q.39-.03.5-.4.55-1.94-1.1-1.92-30.43.43-87.06.06-.87-.01-.64.9.1.41.52.41.64.01.68.37" vector-effect="non-scaling-stroke"/><path stroke="#acabae" d="M76.24 760.12q3.06 1.09 4.99-.56" vector-effect="non-scaling-stroke"/><path stroke="#b7b9ba" d="M418.55 972.54q-.67-3.2-.61-5.48.38-14.08-1.08-28.02M416.86 939.04c.38-1.13.92-2.67.91-3.86q-.22-14.59-.34-29.18c-.01-1.68-.62-3.68.14-5.8a.02.02 0 0 0-.01-.03l-.3-.18q-.2-.12-.21-.36c-.7-17.57-.23-35.19-.73-52.79-.05-1.75-.64-7.95 0-9.27q.22-.44.2-.94-.2-5.99-.1-11.99c.12-7.53-.4-15.94.08-23.97.25-4.1-1.02-7.95-1.06-12.19" vector-effect="non-scaling-stroke"/><path stroke="#a0a0a1" d="M415.44 788.48q.16-12.37-.18-24.79-.02-.61-.69-.43" vector-effect="non-scaling-stroke"/><path stroke="#acabae" d="M412.98 762.59q.31.34 1.59.67" vector-effect="non-scaling-stroke"/><path stroke="#737276" d="m414.57 763.26-14.13.58q-.44.02-.21.4c.88 1.38 1.13 2.95.1 4.45q-6.26 9.14-11.17 19.06c-1.36 2.74-3.23 4.64-5.21 6.85-3.96 4.4-6.44 10.33-9.89 15.25-3.1 4.44-5.41 9.13-8.86 13.44-1.61 2.02-9.14 12.81-10.69 13.26q-.49.14-.77.55l-13.19 19.55q-.26.39-.71.47l-.67.13" vector-effect="non-scaling-stroke"/><path stroke="#898b8f" d="M299.94 829.11q.7-.46 1.45-.22.5.15.78-.28 3.17-4.67 7.95-7.73a.85.85 0 0 0 .39-.83c-.12-.89 2.45-5.26 3.51-7.12 2.69-4.72 7.23-10.82 11.31-14.59 4.41-4.08 7.56-10.49 10.05-14.06q2.79-3.99 5.56-8c1.44-2.08 2.8-5.36 5.14-7.65q.37-.36.54-.85 1.39-4.11 4.54-3.93" vector-effect="non-scaling-stroke"/><path stroke="#a0a0a1" d="M454.52 856.15q-1.56 2.32-1.22 4.6M451.87 865.19q-2.02 3.47-2.28 7.64M449.17 874.17q-1.08 1.31-1.03 2.82.01.48-.19.9-.61 1.3-.55 2.69M445.61 887.55l-.37-1.18" vector-effect="non-scaling-stroke"/><path stroke="#b7b9ba" d="m445.24 886.37-3.57 11.09" vector-effect="non-scaling-stroke"/><path stroke="#acabae" d="M441.67 897.46q-.55 1.99.02 4.14" vector-effect="non-scaling-stroke"/><path stroke="#727476" d="m418.92 998.92-1.17-4.18M419.1 1000.22l-.42 3.77" vector-effect="non-scaling-stroke"/><path stroke="#b7b9ba" d="m419.69 1008.02.15-5.79" vector-effect="non-scaling-stroke"/><path stroke="#959595" d="m324.01 757.64-26.71-.28" vector-effect="non-scaling-stroke"/><path stroke="#727476" d="M297.3 757.36c-13.89-.73-25.29-.58-41.74-.84q-10.81-.17-21.44.63" vector-effect="non-scaling-stroke"/><path stroke="#5c5b5d" d="m234.12 757.15-10.44-.44" vector-effect="non-scaling-stroke"/><path stroke="#7e7f82" d="M234.12 757.15q-12.57 1.41-25.64 1.29" vector-effect="non-scaling-stroke"/><path stroke="#a0a0a1" d="M208.48 758.44q-48.87-.02-97.79.24c-2.52.01-5.56-.62-8.47-.49" vector-effect="non-scaling-stroke"/><path stroke="#b7b9ba" d="M297.3 757.36q-3.77.92-7.55.92-21.27.01-42.55.16a1.49 1.49 0 0 0-.84.26c-.62.42-24.21-.05-26.15-.11q-5.85-.16-11.73-.15" vector-effect="non-scaling-stroke"/><path stroke="#898b8f" d="m416.86 939.04-.45 39.33" vector-effect="non-scaling-stroke"/><path stroke="#737276" d="M416.41 978.37q-.87-4.42-.87-9.18-.01-34.35-.16-68.68 0-.06.07-.08.03 0 .06-.03.08-.05.07-.2-.69-6.39-.63-12.8.11-12.21.09-12.8-.39-15.93-1-31.95" vector-effect="non-scaling-stroke"/><path stroke="#7e7f82" d="M415.44 788.48q-1.15 14.72-.81 29.21" vector-effect="non-scaling-stroke"/><path stroke="#737276" d="m414.63 817.69-.32 1.83" vector-effect="non-scaling-stroke"/><path stroke="#5c5b5d" d="m414.31 819.52-.4-5.66q-.03-.41-.36-.66c-2.35-1.73-3.68-1.04-5.08 1.28-6 9.9-11.37 19.9-19.2 28.77-.92 1.05-2.75 1.89-3.33 3.7q-.15.46-.45.84-.54.67-.95 1.4-3.03 5.33-6.18 10.55-1.12 1.85-2.48 3.54-5.13 6.38-7.58 14.13-.15.47-.62.58-2.83.7-4.71 2.26" vector-effect="non-scaling-stroke"/><path stroke="#898b8f" d="M416.86 939.04q.17-.1-.02-.38-.17-.26-.16-.56.14-12.24.15-24.47c.01-1.48.42-3.42.15-5.24-.3-2.01-1.53-9.57-.6-10.87q.29-.4.26-.9-1.57-24.44-1.23-48.94c.02-1.79-.22-3.41.03-5.21.42-2.93-.16-6.28-.17-8.62q-.05-8.05-.64-16.16" vector-effect="non-scaling-stroke"/><path stroke="#7e7f82" d="m445.24 886.37-1.11 4.85" vector-effect="non-scaling-stroke"/><path stroke="#898b8f" d="M444.13 891.22c-.37 1.2-1.04 6.58-2.46 6.24" vector-effect="non-scaling-stroke"/><path stroke="#737276" d="M444.25 891.99q.07-.48-.12-.77" vector-effect="non-scaling-stroke"/><path stroke="#7e7f82" d="M416.41 978.37q.27 1.96-.54 4.63" vector-effect="non-scaling-stroke"/><path stroke="#676769" d="m414.31 819.52-.27 23.13" vector-effect="non-scaling-stroke"/><path stroke="#5c5b5d" d="M414.04 842.65c-1.01 11.95-.66 23.9-.78 36.05q0 .39.17.73.22.43.24 1.32.99 31.31 1.25 62.64c.01 1.72-.49 3.4-.45 5.42q.18 10.69-.44 25.78" vector-effect="non-scaling-stroke"/><path stroke="gray" d="M615.36 688.89c-10.33 30.98-2.87 64.68 32.89 73.39 28.09 6.85 56.28-1.08 77-21.02a.54.54 0 0 0-.01-.78l-19.11-17.91q-.48-.45-.96-.01-4.78 4.31-7.74 6.34c-19.01 13.03-48.69 11.18-53.07-16.22-3.36-21.03 10.49-44.07 26.68-55.38 14.1-9.86 39.18-15.04 50.55 1.68q.31.45.77.15l27.6-18.18a.98.98 0 0 0 .31-1.3c-7.97-14.04-24.91-19.43-40.51-19.37-43.37.17-80.58 27.15-94.4 68.61M1384.04 639.68a17.46 17.46 0 0 0-17.46-17.46 17.46 17.46 0 0 0-17.46 17.46 17.46 17.46 0 0 0 17.46 17.46 17.46 17.46 0 0 0 17.46-17.46M760.03 760.74a.32.32 0 0 0 .26.51h32.83a.32.32 0 0 0 .27-.14l19.58-28.73a.32.32 0 0 1 .27-.14l53.58.01a.32.32 0 0 1 .32.28l3.65 28.44a.32.32 0 0 0 .32.28h33.85a.32.32 0 0 0 .31-.37l-21.46-136.86a.32.32 0 0 0-.31-.27h-24.9a.32.32 0 0 0-.26.13l-98.31 136.86M1033.49 650.73a.32.32 0 0 1 .31-.23h39.1a.32.32 0 0 0 .31-.23l7.4-26.11a.32.32 0 0 0-.3-.41H971.09a.32.32 0 0 0-.31.23l-7.36 26.11a.32.32 0 0 0 .31.41h38.76a.32.32 0 0 1 .31.41l-31.01 109.93a.32.32 0 0 0 .31.41l29.96-.01a.32.32 0 0 0 .31-.23l31.12-110.28M1110.14 760.72a.41.41 0 0 0 .39.52l29.77.03a.41.41 0 0 0 .39-.3l38.55-136.7a.41.41 0 0 0-.39-.52h-29.75a.41.41 0 0 0-.39.3l-38.57 136.67M1235.74 761.25a.31.31 0 0 0 .25-.14l19.63-28.84a.31.31 0 0 1 .25-.14l53.53.16a.31.31 0 0 1 .3.27l3.63 28.42a.31.31 0 0 0 .3.27h33.91a.31.31 0 0 0 .3-.36l-21.5-136.88a.31.31 0 0 0-.31-.26h-24.89a.31.31 0 0 0-.25.13l-98.35 136.88a.31.31 0 0 0 .25.49h32.95" vector-effect="non-scaling-stroke"/><path stroke="gray" d="M1380.89 639.69a14.47 14.47 0 0 0-14.47-14.47 14.47 14.47 0 0 0-14.47 14.47 14.47 14.47 0 0 0 14.47 14.47 14.47 14.47 0 0 0 14.47-14.47M859.04 664.53a.31.31 0 0 0-.57-.14l-28.15 41.63a.31.31 0 0 0 .25.48h32.98a.31.31 0 0 0 .31-.35l-4.82-41.62M1301.22 664.09l-28.25 41.88q-.36.53.29.53h32.71q.48 0 .43-.48-2.33-20.36-4.77-40.7-.08-.69-.37-1.23a.02.02 0 0 0-.04 0" vector-effect="non-scaling-stroke"/><path stroke="gray" d="M1370.59 641c4.18-1.45 5.24-6.08 2.66-9.32-2.36-2.97-9.47-2.28-13.06-2.11q-.44.02-.44.46V649q0 .5.5.5h2.75q.5 0 .5-.5v-6.99q0-.55.55-.53l1.61.03q.59.01.9.52l4.29 7.03q.26.43.75.43l2.61.03a.45.45 0 0 0 .39-.68l-4.29-7.05q-.35-.57.28-.79" vector-effect="non-scaling-stroke"/><path stroke="gray" d="M1363.5 633.12v4.7a.38.38 0 0 0 .38.38h3.62a3.26 2.26 0 0 0 3.26-2.26V635a3.26 2.26 0 0 0-3.26-2.26h-3.62a.38.38 0 0 0-.38.38" vector-effect="non-scaling-stroke"/></g><path d="M0 0h1448v1448H0V0Zm582.39 524.41q-38.33 40.59-80.17 77.32-40.48 35.34-85.29 64.7-28.43 18.36-58.69 33.34-23.36 11.41-47.76 20.49-43.77 15.97-89.49 24.1a1.32 1.32 0 0 0-1.06 1.08l-.54 3.22q-.06.37.22.63 3.17 2.98 7.08 4.68a.79.79 0 0 1 0 1.45l-3.01 1.29c-33.72.84-60.73-.46-101.37-.13q-7.94.07-20.09 1.61l-20.99 1.37-4.99.56-9.62.67q-.06.01-.08.07-.05.14-.05.25-.02.25.24.28L86 763.1q34.76 3.77 68.96 11.08c33.2 7.44 65.13 16.99 96.49 30.16q25.15 10.78 48.49 24.77 20.78 12.58 39.23 28.14 12.73 10.81 23.8 23 18.75 20.51 31.98 45.2a1.49 1.48-44.7 0 0 2.61.01q1.49-2.69 3.38-5.64c1.9-2.98 5.61-6.25 7.25-10.61a2.66 2.66 0 0 1 2.66-1.71c2.48.15 1.92 31.9 1.78 35.14q-.02.5.28.91.42.59.14 1.22-.15.36-.16.75-.38 14.59 1.14 29.07l1.84 8.41 1.88 11.74.93 9.25 1.01 4.03q.34 6.15.91 12.33c.23 2.5-.01 5.76.22 8.66a.25.24-45.9 0 0 .49-.01l1.96-30.76 4.19-31.23q1.43-3.31 1.18-6.83.45-.26.45-1.64 2.09-7.08 2.66-14.57l.82-3.69q.98-1.81.98-4.26l2.07-9.48 1.88-8.39q.81-1.81.72-3.91l3.47-12.64 2.56-9.61 1.36-4.44 1.79-6.97 1.77-6.41q.4.21.42-1.34l2.28-7.64 1.43-4.44q1.11-2.06 1.22-4.6l19.56-58.09q17.42-47.36 38.01-93.5l29.76-63.23 16.74-32.75Q576.98 573.6 596.5 540a.94.94 0 0 0-.72-1.41q-3.4-.35-6.82-.79-.57-.07-.69-.63-.23-1.06.42-2.72l1.13-1.55 85.1-115.22q.08-.12-.06-.14-.19-.04-.27.05-43.94 55.32-92.2 106.82Zm32.97 164.48c-10.33 30.98-2.87 64.68 32.89 73.39 28.09 6.85 56.28-1.08 77-21.02a.54.54 0 0 0-.01-.78l-19.11-17.91q-.48-.45-.96-.01-4.78 4.31-7.74 6.34c-19.01 13.03-48.69 11.18-53.07-16.22-3.36-21.03 10.49-44.07 26.68-55.38 14.1-9.86 39.18-15.04 50.55 1.68q.31.45.77.15l27.6-18.18a.98.98 0 0 0 .31-1.3c-7.97-14.04-24.91-19.43-40.51-19.37-43.37.17-80.58 27.15-94.4 68.61Zm768.68-49.21a17.46 17.46 0 0 0-17.46-17.46 17.46 17.46 0 0 0-17.46 17.46 17.46 17.46 0 0 0 17.46 17.46 17.46 17.46 0 0 0 17.46-17.46ZM760.03 760.74a.32.32 0 0 0 .26.51h32.83a.32.32 0 0 0 .27-.14l19.58-28.73a.32.32 0 0 1 .27-.14l53.58.01a.32.32 0 0 1 .32.28l3.65 28.44a.32.32 0 0 0 .32.28h33.85a.32.32 0 0 0 .31-.37l-21.46-136.86a.32.32 0 0 0-.31-.27h-24.9a.32.32 0 0 0-.26.13l-98.31 136.86Zm273.46-110.01a.32.32 0 0 1 .31-.23h39.1a.32.32 0 0 0 .31-.23l7.4-26.11a.32.32 0 0 0-.3-.41H971.09a.32.32 0 0 0-.31.23l-7.36 26.11a.32.32 0 0 0 .31.41h38.76a.32.32 0 0 1 .31.41l-31.01 109.93a.32.32 0 0 0 .31.41l29.96-.01a.32.32 0 0 0 .31-.23l31.12-110.28Zm76.65 109.99a.41.41 0 0 0 .39.52l29.77.03a.41.41 0 0 0 .39-.3l38.55-136.7a.41.41 0 0 0-.39-.52h-29.75a.41.41 0 0 0-.39.3l-38.57 136.67Zm125.6.53a.31.31 0 0 0 .25-.14l19.63-28.84a.31.31 0 0 1 .25-.14l53.53.16a.31.31 0 0 1 .3.27l3.63 28.42a.31.31 0 0 0 .3.27h33.91a.31.31 0 0 0 .3-.36l-21.5-136.88a.31.31 0 0 0-.31-.26h-24.89a.31.31 0 0 0-.25.13l-98.35 136.88a.31.31 0 0 0 .25.49h32.95Z"/><path fill="#fff" d="m589.82 532.9-6.66-6.39q-.3-.28-.4-.68l-.37-1.42q48.26-51.5 92.2-106.82.08-.09.27-.05.14.02.06.14l-85.1 115.22Z"/><path fill="#d9d9d9" d="m582.39 524.41.37 1.42q.1.4.4.68l6.66 6.39-1.13 1.55-51.74 69.95-15.46 20.89q-.91-.62-1.48.41-.18.33-.39.02-2.07-3.09-4.65-5.83-.35-.37-.47-.86c-1.18-4.52-2.87-7.38-6.89-10.22q-2.88-2.03-5.05-4.86-.32-.41-.1-.89.37-.81-.24-1.33 41.84-36.73 80.17-77.32Z"/><path fill="#505050" d="M588.69 534.45q-.65 1.66-.42 2.72.12.56.69.63 3.42.44 6.82.79a.94.94 0 0 1 .72 1.41q-19.52 33.6-37.91 68.58.25-3.23-2.55-3.27c-6.02-.07-15.62 1.1-19.09-.91l51.74-69.95Z"/><path fill="#94989b" d="M502.22 601.73q.61.52.24 1.33-.22.48.1.89 2.17 2.83 5.05 4.86c4.02 2.84 5.71 5.7 6.89 10.22q.12.49.47.86 2.58 2.74 4.65 5.83.21.31.39-.02.57-1.03 1.48-.41l-9.86 13.29-58.92 79.4q-.92 1.24-2.29.52c-5.5-2.91-3.42-7.42-6.6-11.43a1.36 1.34-64.8 0 1-.3-.85c-.03-5.08-2.73-6.75-4.1-10.96q-1.7-5.21-5.26-9.38c-4.17-4.89-11.64-2.42-13.74-10.24-.89-3.33-2.35-5.2-3.83-8.01q-.05-.1-.02-.09l.26.14q.16.09.16-.1l-.06-1.15q44.81-29.36 85.29-64.7Z"/><path fill="#676669" d="M536.95 604.4c3.47 2.01 13.07.84 19.09.91q2.8.04 2.55 3.27l-16.74 32.75-1.55-1.74q-.35-.4-.89-.41l-27.78-.6 9.86-13.29 15.46-20.89Z"/><path fill="#fff" d="M648.25 762.28c-35.76-8.71-43.22-42.41-32.89-73.39 13.82-41.46 51.03-68.44 94.4-68.61 15.6-.06 32.54 5.33 40.51 19.37a.98.98 0 0 1-.31 1.3l-27.6 18.18q-.46.3-.77-.15c-11.37-16.72-36.45-11.54-50.55-1.68-16.19 11.31-30.04 34.35-26.68 55.38 4.38 27.4 34.06 29.25 53.07 16.22q2.96-2.03 7.74-6.34.48-.44.96.01l19.11 17.91a.54.54 0 0 1 .01.78c-20.72 19.94-48.91 27.87-77 21.02ZM1384.04 639.68a17.46 17.46 0 0 1-17.46 17.46 17.46 17.46 0 0 1-17.46-17.46 17.46 17.46 0 0 1 17.46-17.46 17.46 17.46 0 0 1 17.46 17.46Zm-3.15.01a14.47 14.47 0 0 0-14.47-14.47 14.47 14.47 0 0 0-14.47 14.47 14.47 14.47 0 0 0 14.47 14.47 14.47 14.47 0 0 0 14.47-14.47ZM760.03 760.74l98.31-136.86a.32.32 0 0 1 .26-.13h24.9a.32.32 0 0 1 .31.27l21.46 136.86a.32.32 0 0 1-.31.37h-33.85a.32.32 0 0 1-.32-.28l-3.65-28.44a.32.32 0 0 0-.32-.28l-53.58-.01a.32.32 0 0 0-.27.14l-19.58 28.73a.32.32 0 0 1-.27.14h-32.83a.32.32 0 0 1-.26-.51Zm99.01-96.21a.31.31 0 0 0-.57-.14l-28.15 41.63a.31.31 0 0 0 .25.48h32.98a.31.31 0 0 0 .31-.35l-4.82-41.62ZM1033.49 650.73l-31.12 110.28a.32.32 0 0 1-.31.23l-29.96.01a.32.32 0 0 1-.31-.41l31.01-109.93a.32.32 0 0 0-.31-.41h-38.76a.32.32 0 0 1-.31-.41l7.36-26.11a.32.32 0 0 1 .31-.23h109.22a.32.32 0 0 1 .3.41l-7.4 26.11a.32.32 0 0 1-.31.23h-39.1a.32.32 0 0 0-.31.23ZM1110.14 760.72l38.57-136.67a.41.41 0 0 1 .39-.3h29.75a.41.41 0 0 1 .39.52l-38.55 136.7a.41.41 0 0 1-.39.3l-29.77-.03a.41.41 0 0 1-.39-.52ZM1235.74 761.25h-32.95a.31.31 0 0 1-.25-.49l98.35-136.88a.31.31 0 0 1 .25-.13h24.89a.31.31 0 0 1 .31.26l21.5 136.88a.31.31 0 0 1-.3.36h-33.91a.31.31 0 0 1-.3-.27l-3.63-28.42a.31.31 0 0 0-.3-.27l-53.53-.16a.31.31 0 0 0-.25.14l-19.63 28.84a.31.31 0 0 1-.25.14Zm65.48-97.16-28.25 41.88q-.36.53.29.53h32.71q.48 0 .43-.48-2.33-20.36-4.77-40.7-.08-.69-.37-1.23a.02.02 0 0 0-.04 0Z"/><path d="M1380.89 639.69a14.47 14.47 0 0 1-14.47 14.47 14.47 14.47 0 0 1-14.47-14.47 14.47 14.47 0 0 1 14.47-14.47 14.47 14.47 0 0 1 14.47 14.47Zm-10.3 1.31c4.18-1.45 5.24-6.08 2.66-9.32-2.36-2.97-9.47-2.28-13.06-2.11q-.44.02-.44.46V649q0 .5.5.5h2.75q.5 0 .5-.5v-6.99q0-.55.55-.53l1.61.03q.59.01.9.52l4.29 7.03q.26.43.75.43l2.61.03a.45.45 0 0 0 .39-.68l-4.29-7.05q-.35-.57.28-.79Z"/><path fill="#fff" d="m1370.31 641.79 4.29 7.05a.45.45 0 0 1-.39.68l-2.61-.03q-.49 0-.75-.43l-4.29-7.03q-.31-.51-.9-.52l-1.61-.03q-.55-.02-.55.53V649q0 .5-.5.5h-2.75q-.5 0-.5-.5v-18.97q0-.44.44-.46c3.59-.17 10.7-.86 13.06 2.11 2.58 3.24 1.52 7.87-2.66 9.32q-.63.22-.28.79Zm-6.81-8.67v4.7a.38.38 0 0 0 .38.38h3.62a3.26 2.26 0 0 0 3.26-2.26V635a3.26 2.26 0 0 0-3.26-2.26h-3.62a.38.38 0 0 0-.38.38Z"/><path d="M1363.5 633.12a.38.38 0 0 1 .38-.38h3.62a3.26 2.26 0 0 1 3.26 2.26v.94a3.26 2.26 0 0 1-3.26 2.26h-3.62a.38.38 0 0 1-.38-.38v-4.7Z"/><path fill="#7e7d82" d="m511.63 638.58 27.78.6q.54.01.89.41l1.55 1.74-29.76 63.23c-4.14-4.17-12.15-.58-17.36-1.97q-.46-.13-.9.05c-1.81.74-6.06.05-8.34.31q-.47.05-.88-.19-1.14-.66-2.39.01a1.06 1.03 41.7 0 1-.89.04q-.72-.31-1.51-.23-7.02.73-14.03-.23-.51-.07-.81.34l-38.67 52.33c-.9 1.45-1.56 2.46-3.42 2.63-11.33 1.05-25.9.39-44.65.3 3.1-.07 6.22-1.03 8.84-1.17q2.22-.12 4.4-.06a2.58 2.58 0 0 0 1.88-4.43q-2.69-2.62-4.64-5.65a2.54 2.44-66.6 0 1-.35-.94c-.74-5.07-3.97-7.2-5.98-10.78q-2.38-4.22-4.17-8.74c-.56-1.43-1.34-1.81-2.72-2.17-2.77-.71-1.92-1.62-2.24-3.81q-.5-3.39-1.91-6.56a1.27 1.27 0 0 0-.68-.65c-3.64-1.48-8.23-1.17-10.39-4.99q-1.88-3.32-2.69-7.09-.04-.23.17-.32.26-.11.51-.19.32-.11.14-.38l-.17-.25q30.26-14.98 58.69-33.34l.06 1.15q0 .19-.16.1l-.26-.14q-.03-.01.02.09c1.48 2.81 2.94 4.68 3.83 8.01 2.1 7.82 9.57 5.35 13.74 10.24q3.56 4.17 5.26 9.38c1.37 4.21 4.07 5.88 4.1 10.96a1.36 1.34-64.8 0 0 .3.85c3.18 4.01 1.1 8.52 6.6 11.43q1.37.72 2.29-.52l58.92-79.4Z"/><path d="m859.04 664.53 4.82 41.62a.31.31 0 0 1-.31.35h-32.98a.31.31 0 0 1-.25-.48l28.15-41.63a.31.31 0 0 1 .57.14ZM1301.22 664.09a.02.02 0 0 1 .04 0q.29.54.37 1.23 2.44 20.34 4.77 40.7.05.48-.43.48h-32.71q-.65 0-.29-.53l28.25-41.88Z"/><path fill="#676669" d="m358.24 699.77.17.25q.18.27-.14.38-.25.08-.51.19-.21.09-.17.32.81 3.77 2.69 7.09c2.16 3.82 6.75 3.51 10.39 4.99a1.27 1.27 0 0 1 .68.65q1.41 3.17 1.91 6.56c.32 2.19-.53 3.1 2.24 3.81 1.38.36 2.16.74 2.72 2.17q1.79 4.52 4.17 8.74c2.01 3.58 5.24 5.71 5.98 10.78a2.54 2.44-66.6 0 0 .35.94q1.95 3.03 4.64 5.65a2.58 2.58 0 0 1-1.88 4.43q-2.18-.06-4.4.06c-2.62.14-5.74 1.1-8.84 1.17l-21.08-.12-33.15-.19 12.32-1.97q.56-.09.56-.66v-2.82q0-.56-.48-.84c-5.12-2.94-7.84-7.36-11.9-10.67q-3.79-3.1-7.68-6.15a1.58 1.58 0 0 1-.56-.9q-1.33-6.31-5.44-11.31-.33-.41-.34-.93l-.01-1.13q24.4-9.08 47.76-20.49Z"/><path fill="#94989b" d="M512.09 704.56q-20.59 46.14-38.01 93.5l-.53.21q-.34.13-.33-.23c.03-1.62-2.9-1.74-4.07-1.83q-.48-.04-.77.36-.66.9-1.65.54a.95.93 31.6 0 0-.97.22c-2.59 2.64-16.87-.84-24.75 1.93q-9.33 3.27-14.76-3.96l.06-40.28 38.67-52.33q.3-.41.81-.34 7.01.96 14.03.23.79-.08 1.51.23a1.06 1.03 41.7 0 0 .89-.04q1.25-.67 2.39-.01.41.24.88.19c2.28-.26 6.53.43 8.34-.31q.44-.18.9-.05c5.21 1.39 13.22-2.2 17.36 1.97Z"/><path fill="#505050" d="m310.48 720.26.01 1.13q.01.52.34.93 4.11 5 5.44 11.31a1.58 1.58 0 0 0 .56.9q3.89 3.05 7.68 6.15c4.06 3.31 6.78 7.73 11.9 10.67q.48.28.48.84v2.82q0 .57-.56.66l-12.32 1.97-26.71-.28c-13.89-.73-25.29-.58-41.74-.84q-10.81-.17-21.44.63l-10.44-.44 3.01-1.29a.79.79 0 0 0 0-1.45q-3.91-1.7-7.08-4.68-.28-.26-.22-.63l.54-3.22a1.32 1.32 0 0 1 1.06-1.08q45.72-8.13 89.49-24.1Z"/><path fill="#fff" d="m426.31 755.02-.06 40.28q.39 1.84.24 4.7c-.89 16.99-.42 34.12-.98 51.12-.04 1.34-.84 2.73-.39 4.38q.09.33-.1.63l-.36.54q-.23.35-.01.71l1.2 1.97q.32.52-.18.86-.8.55-.7 1.51.04.39-.23.68-.69.73-.99.1a.29.22 35.3 0 0-.51.02q.24 1.72-1.52 1.93-.34.05-.37.39-.26 3.05.12 6.1.11.9.23 0l.1-.73q.06-.47.46-.21.34.21.31.69a.63.63 0 0 0 .61.67q2.1.07 2.02 2.29-.01.39-.3.66-.4.38-.94.46a.46.46 0 0 1-.5-.62q.27-.73.22-.92a1.27 1.21 38.9 0 0-2.45.21l-.14 21.87q-.01.76.7.47l1.73-.72a.29.29 0 0 0 .07-.5q-.24-.18-.47-.35a.44.44 0 0 1-.05-.66l.56-.56q.39-.38-.1-.63-.21-.11-.48-.13-.83-.06-.28-.67l.56-.63q.15-.17-.07-.23l-.93-.27a.48.48 0 0 1-.21-.79q.58-.59.24-.83-.43-.3-.36-.82.18-1.21.68-2.26a.34.29 65.6 0 1 .56.26q-.06.46.36.78.06.05.06.01l-.27-6.11q-.02-.48.44-.61.64-.16.71.45.72 6.15.84 7.88a3.86 3.71 48.6 0 1-.04.95c-.47 2.94 1.93 8.27 3.7 10.05a1.54 1.5 18.6 0 1 .41.8q.71 4.12 3.24 7.38.31.4.31.91v.54q0 .28.27.24l.34-.05q.49-.07.28-.51-.78-1.62.9-1.91.53-.08.56-.62l.21-4.32q.03-.62.65-.62l3.02.03q.5 0 .52.5c.18 4.56-1.32 8.02-1.53 12.48q.09 2.1-.72 3.91l-1.04 3.95q-.12.47-.41.87-1.06 1.48-.43 3.57l-2.07 9.48q-1.14 2.13-.98 4.26l-.82 3.69q-.96 2.14-1.28 4.35c-.5 3.5-1.81 6.48-1.38 10.22q0 1.38-.45 1.64l-1.18 6.83-4.19 31.23q-.32.51-.83.55a.55.55 0 0 1-.59-.54q-.09-6.3-.16-12.61c-.05-5.26.43-13.54.05-20.35q-.09-1.54-.16 0c-.43 8.5-.05 39.67-.97 39.6q-.43-.03-.37-.45.18-1.42-.4-2.21-.67-.48-.74-2.01l-.18-1.3-.37-26.38q0-9.66-.09-19.24c-.02-2.92-1.02-6.84-.19-10.57a1.73 1.71 42.3 0 0-.05-.91q-1.18-3.48 1.03-6.04.3-.35.29-.81-.28-14.23-.07-28.46c.14-9.04-.87-20.97.24-31.63q.05-.48-.13-.93-.59-1.53-.13-3.07.13-.43 0-.86-.46-1.47-.03-2.94.15-.49.04-.99-.35-1.62.01-3.24.09-.41-.01-.82-.17-.67-.06-1.7.24-2.28-.3-4.94c-1.83-9.12-.47-18.94-.96-28.21-.37-6.95-.08-13.57-.53-20.79-.16-2.54.49-8.14-.46-10.19a1.98 1.97-56.2 0 1-.19-.97c.5-10.4 1.13-18.19-.38-27.3q-.2-1.21.21-4.54a.59.59 0 0 0-.44-.64q-1.74-.42-3.37-.16l-4.47-.24q-14.19-.21-28.36-.46c-5.37-.1-13.68.65-20.66-.17q-.49-.06-.83-.43-1.17-1.26-1.5-3.46l21.08.12c18.75.09 33.32.75 44.65-.3 1.86-.17 2.52-1.18 3.42-2.63Z"/><path fill="#676669" d="m223.68 756.71 10.44.44q-12.57 1.41-25.64 1.29-48.87-.02-97.79.24c-2.52.01-5.56-.62-8.47-.49q12.15-1.54 20.09-1.61c40.64-.33 67.65.97 101.37.13Z"/><path fill="#94989b" d="M297.3 757.36q-3.77.92-7.55.92-21.27.01-42.55.16a1.49 1.49 0 0 0-.84.26c-.62.42-24.21-.05-26.15-.11q-5.85-.16-11.73-.15 13.07.12 25.64-1.29 10.63-.8 21.44-.63c16.45.26 27.85.11 41.74.84Z"/><path fill="#d9d9d9" d="m297.3 757.36 26.71.28 33.15.19q.33 2.2 1.5 3.46.34.37.83.43c6.98.82 15.29.07 20.66.17q14.17.25 28.36.46-2.58.12-5.03.52c-2.99.48-6.37-.38-8.97-.31q-11.99.33-23.97.23c-2.14-.01-4.69.63-7.13.54-4.46-.17-8.06.56-12.25.52l-47.91.3a.59.56 18.7 0 0-.45.21c-.59.68-17.87.65-19.94.64q-.51 0-.76.44-1.97 3.55-4.9 6.39-.47.45.18.43.16-.01.31-.01.61-.01.31.53-3.6 6.32-7.15 12.66-1.94 3.47-4.56 6.05c-4.06 3.98-7.43 6.58-10.56 12.31q-.24.44-.74.45l-3.54.09c-31.36-13.17-63.29-22.72-96.49-30.16l4.23.05q.45 0 .69-.38 1.27-2.07.82-4.55a1.58 1.53-37.2 0 1 .15-.98c2.82-5.43 6.94-4.26 12.25-4.64q.39-.03.5-.4.55-1.94-1.1-1.92-30.43.43-87.06.06-.87-.01-.64.9.1.41.52.41.64.01.68.37l-19.27-1.71q-.26-.03-.24-.28 0-.11.05-.25.02-.06.08-.07l9.62-.67q3.06 1.09 4.99-.56l20.99-1.37c2.91-.13 5.95.5 8.47.49q48.92-.26 97.79-.24 5.88-.01 11.73.15c1.94.06 25.53.53 26.15.11a1.49 1.49 0 0 1 .84-.26q21.28-.15 42.55-.16 3.78 0 7.55-.92Z"/><path fill="#7e7d82" d="M81.23 759.56q-1.93 1.65-4.99.56l4.99-.56Z"/><path fill="#fff" d="M154.96 774.18q-34.2-7.31-68.96-11.08-.04-.36-.68-.37-.42 0-.52-.41-.23-.91.64-.9 56.63.37 87.06-.06 1.65-.02 1.1 1.92-.11.37-.5.4c-5.31.38-9.43-.79-12.25 4.64a1.58 1.53-37.2 0 0-.15.98q.45 2.48-.82 4.55-.24.38-.69.38l-4.23-.05Z"/><path fill="#7e7d82" d="m408.51 762.35 4.47.24q.31.34 1.59.67l-14.13.58q-.44.02-.21.4c.88 1.38 1.13 2.95.1 4.45q-6.26 9.14-11.17 19.06c-1.36 2.74-3.23 4.64-5.21 6.85-3.96 4.4-6.44 10.33-9.89 15.25-3.1 4.44-5.41 9.13-8.86 13.44-1.61 2.02-9.14 12.81-10.69 13.26q-.49.14-.77.55l-13.19 19.55q-.26.39-.71.47l-.67.13q-18.45-15.56-39.23-28.14.7-.46 1.45-.22.5.15.78-.28 3.17-4.67 7.95-7.73a.85.85 0 0 0 .39-.83c-.12-.89 2.45-5.26 3.51-7.12 2.69-4.72 7.23-10.82 11.31-14.59 4.41-4.08 7.56-10.49 10.05-14.06q2.79-3.99 5.56-8c1.44-2.08 2.8-5.36 5.14-7.65q.37-.36.54-.85 1.39-4.11 4.54-3.93c4.19.04 7.79-.69 12.25-.52 2.44.09 4.99-.55 7.13-.54q11.98.1 23.97-.23c2.6-.07 5.98.79 8.97.31q2.45-.4 5.03-.52Z"/><path fill="#d9d9d9" d="M412.98 762.59q1.63-.26 3.37.16a.59.59 0 0 1 .44.64q-.41 3.33-.21 4.54c1.51 9.11.88 16.9.38 27.3a1.98 1.97-56.2 0 0 .19.97c.95 2.05.3 7.65.46 10.19.45 7.22.16 13.84.53 20.79.49 9.27-.87 19.09.96 28.21q.54 2.66.3 4.94-.11 1.03.06 1.7.1.41.01.82-.36 1.62-.01 3.24.11.5-.04.99-.43 1.47.03 2.94.13.43 0 .86-.46 1.54.13 3.07.18.45.13.93c-1.11 10.66-.1 22.59-.24 31.63q-.21 14.23.07 28.46.01.46-.29.81-2.21 2.56-1.03 6.04a1.73 1.71 42.3 0 1 .05.91c-.83 3.73.17 7.65.19 10.57q.09 9.58.09 19.24-.67-3.2-.61-5.48.38-14.08-1.08-28.02c.38-1.13.92-2.67.91-3.86q-.22-14.59-.34-29.18c-.01-1.68-.62-3.68.14-5.8a.02.02 0 0 0-.01-.03l-.3-.18q-.2-.12-.21-.36c-.7-17.57-.23-35.19-.73-52.79-.05-1.75-.64-7.95 0-9.27q.22-.44.2-.94-.2-5.99-.1-11.99c.12-7.53-.4-15.94.08-23.97.25-4.1-1.02-7.95-1.06-12.19q.16-12.37-.18-24.79-.02-.61-.69-.43-1.28-.33-1.59-.67Z"/><path fill="#676669" d="M414.57 763.26q.67-.18.69.43.34 12.42.18 24.79-1.15 14.72-.81 29.21l-.32 1.83-.4-5.66q-.03-.41-.36-.66c-2.35-1.73-3.68-1.04-5.08 1.28-6 9.9-11.37 19.9-19.2 28.77-.92 1.05-2.75 1.89-3.33 3.7q-.15.46-.45.84-.54.67-.95 1.4-3.03 5.33-6.18 10.55-1.12 1.85-2.48 3.54-5.13 6.38-7.58 14.13-.15.47-.62.58-2.83.7-4.71 2.26-11.07-12.19-23.8-23l.67-.13q.45-.08.71-.47l13.19-19.55q.28-.41.77-.55c1.55-.45 9.08-11.24 10.69-13.26 3.45-4.31 5.76-9 8.86-13.44 3.45-4.92 5.93-10.85 9.89-15.25 1.98-2.21 3.85-4.11 5.21-6.85q4.91-9.92 11.17-19.06c1.03-1.5.78-3.07-.1-4.45q-.23-.38.21-.4l14.13-.58Z"/><path fill="#94989b" d="M351.16 763.85q-3.15-.18-4.54 3.93-.17.49-.54.85c-2.34 2.29-3.7 5.57-5.14 7.65q-2.77 4.01-5.56 8c-2.49 3.57-5.64 9.98-10.05 14.06-4.08 3.77-8.62 9.87-11.31 14.59-1.06 1.86-3.63 6.23-3.51 7.12a.85.85 0 0 1-.39.83q-4.78 3.06-7.95 7.73-.28.43-.78.28-.75-.24-1.45.22-23.34-13.99-48.49-24.77l3.54-.09q.5-.01.74-.45c3.13-5.73 6.5-8.33 10.56-12.31q2.62-2.58 4.56-6.05 3.55-6.34 7.15-12.66.3-.54-.31-.53-.15 0-.31.01-.65.02-.18-.43 2.93-2.84 4.9-6.39.25-.44.76-.44c2.07.01 19.35.04 19.94-.64a.59.56 18.7 0 1 .45-.21l47.91-.3ZM415.44 788.48c.04 4.24 1.31 8.09 1.06 12.19-.48 8.03.04 16.44-.08 23.97q-.1 6 .1 11.99.02.5-.2.94c-.64 1.32-.05 7.52 0 9.27.5 17.6.03 35.22.73 52.79q.01.24.21.36l.3.18a.02.02 0 0 1 .01.03c-.76 2.12-.15 4.12-.14 5.8q.12 14.59.34 29.18c.01 1.19-.53 2.73-.91 3.86q.17-.1-.02-.38-.17-.26-.16-.56.14-12.24.15-24.47c.01-1.48.42-3.42.15-5.24-.3-2.01-1.53-9.57-.6-10.87q.29-.4.26-.9-1.57-24.44-1.23-48.94c.02-1.79-.22-3.41.03-5.21.42-2.93-.16-6.28-.17-8.62q-.05-8.05-.64-16.16-.34-14.49.81-29.21Z"/><path fill="#d9d9d9" d="M426.25 795.3q5.43 7.23 14.76 3.96c7.88-2.77 22.16.71 24.75-1.93a.95.93 31.6 0 1 .97-.22q.99.36 1.65-.54.29-.4.77-.36c1.17.09 4.1.21 4.07 1.83q-.01.36.33.23l.53-.21-19.56 58.09q-1.56 2.32-1.22 4.6l-1.43 4.44q-2.02 3.47-2.28 7.64-.02 1.55-.42 1.34-1.08 1.31-1.03 2.82.01.48-.19.9-.61 1.3-.55 2.69l-1.79 6.97-.37-1.18-3.57 11.09q-.55 1.99.02 4.14l-3.47 12.64c.21-4.46 1.71-7.92 1.53-12.48q-.02-.5-.52-.5l-3.02-.03q-.62 0-.65.62l-.21 4.32q-.03.54-.56.62-1.68.29-.9 1.91.21.44-.28.51l-.34.05q-.27.04-.27-.24v-.54q0-.51-.31-.91-2.53-3.26-3.24-7.38a1.54 1.5 18.6 0 0-.41-.8c-1.77-1.78-4.17-7.11-3.7-10.05a3.86 3.71 48.6 0 0 .04-.95q-.12-1.73-.84-7.88-.07-.61-.71-.45-.46.13-.44.61l.27 6.11q0 .04-.06-.01-.42-.32-.36-.78a.34.29 65.6 0 0-.56-.26q-.5 1.05-.68 2.26-.07.52.36.82.34.24-.24.83a.48.48 0 0 0 .21.79l.93.27q.22.06.07.23l-.56.63q-.55.61.28.67.27.02.48.13.49.25.1.63l-.56.56a.44.44 0 0 0 .05.66q.23.17.47.35a.29.29 0 0 1-.07.5l-1.73.72q-.71.29-.7-.47l.14-21.87a1.27 1.21 38.9 0 1 2.45-.21q.05.19-.22.92a.46.46 0 0 0 .5.62q.54-.08.94-.46.29-.27.3-.66.08-2.22-2.02-2.29a.63.63 0 0 1-.61-.67q.03-.48-.31-.69-.4-.26-.46.21l-.1.73q-.12.9-.23 0-.38-3.05-.12-6.1.03-.34.37-.39 1.76-.21 1.52-1.93a.29.22 35.3 0 1 .51-.02q.3.63.99-.1.27-.29.23-.68-.1-.96.7-1.51.5-.34.18-.86l-1.2-1.97q-.22-.36.01-.71l.36-.54q.19-.3.1-.63c-.45-1.65.35-3.04.39-4.38.56-17 .09-34.13.98-51.12q.15-2.86-.24-4.7Z"/><path fill="#505050" d="m414.31 819.52-.27 23.13c-1.01 11.95-.66 23.9-.78 36.05q0 .39.17.73.22.43.24 1.32.99 31.31 1.25 62.64c.01 1.72-.49 3.4-.45 5.42q.18 10.69-.44 25.78-1.52-14.48-1.14-29.07.01-.39.16-.75.28-.63-.14-1.22-.3-.41-.28-.91c.14-3.24.7-34.99-1.78-35.14a2.66 2.66 0 0 0-2.66 1.71c-1.64 4.36-5.35 7.63-7.25 10.61q-1.89 2.95-3.38 5.64a1.49 1.48-44.7 0 1-2.61-.01q-13.23-24.69-31.98-45.2 1.88-1.56 4.71-2.26.47-.11.62-.58 2.45-7.75 7.58-14.13 1.36-1.69 2.48-3.54 3.15-5.22 6.18-10.55.41-.73.95-1.4.3-.38.45-.84c.58-1.81 2.41-2.65 3.33-3.7 7.83-8.87 13.2-18.87 19.2-28.77 1.4-2.32 2.73-3.01 5.08-1.28q.33.25.36.66l.4 5.66Z"/><path fill="#7e7d82" d="M414.63 817.69q.59 8.11.64 16.16c.01 2.34.59 5.69.17 8.62-.25 1.8-.01 3.42-.03 5.21q-.34 24.5 1.23 48.94.03.5-.26.9c-.93 1.3.3 8.86.6 10.87.27 1.82-.14 3.76-.15 5.24q-.01 12.23-.15 24.47-.01.3.16.56.19.28.02.38l-.45 39.33q-.87-4.42-.87-9.18-.01-34.35-.16-68.68 0-.06.07-.08.03 0 .06-.03.08-.05.07-.2-.69-6.39-.63-12.8.11-12.21.09-12.8-.39-15.93-1-31.95l.27-23.13.32-1.83Z"/><path fill="#676669" d="M414.04 842.65q.61 16.02 1 31.95.02.59-.09 12.8-.06 6.41.63 12.8.01.15-.07.2-.03.03-.06.03-.07.02-.07.08.15 34.33.16 68.68 0 4.76.87 9.18.27 1.96-.54 4.63l-1.84-8.41q.62-15.09.44-25.78c-.04-2.02.46-3.7.45-5.42q-.26-31.33-1.25-62.64-.02-.89-.24-1.32-.17-.34-.17-.73c.12-12.15-.23-24.1.78-36.05ZM454.52 856.15q-.11 2.54-1.22 4.6-.34-2.28 1.22-4.6ZM451.87 865.19l-2.28 7.64q.26-4.17 2.28-7.64ZM449.17 874.17l-1.77 6.41q-.06-1.39.55-2.69.2-.42.19-.9-.05-1.51 1.03-2.82Z"/><path fill="#94989b" d="m445.24 886.37-1.11 4.85c-.37 1.2-1.04 6.58-2.46 6.24l3.57-11.09Z"/><path fill="#676669" d="m445.24 886.37.37 1.18-1.36 4.44q.07-.48-.12-.77l1.11-4.85Z"/><path fill="#7e7d82" d="M444.13 891.22q.19.29.12.77l-2.56 9.61q-.57-2.15-.02-4.14c1.42.34 2.09-5.04 2.46-6.24ZM437.5 918.15l-1.88 8.39q-.63-2.09.43-3.57.29-.4.41-.87l1.04-3.95Z"/><path fill="#505050" d="M433.55 936.02q0 2.45-.98 4.26-.16-2.13.98-4.26Z"/><path fill="#94989b" d="M416.86 939.04q1.46 13.94 1.08 28.02-.06 2.28.61 5.48l.37 26.38-1.17-4.18-1.88-11.74q.81-2.67.54-4.63l.45-39.33Z"/><path fill="#7e7d82" d="M431.75 943.97q-.57 7.49-2.66 14.57c-.43-3.74.88-6.72 1.38-10.22q.32-2.21 1.28-4.35ZM428.64 960.18q.25 3.52-1.18 6.83l1.18-6.83Z"/><path fill="#d9d9d9" d="m423.27 998.24-1.96 30.76a.25.24-45.9 0 1-.49.01c-.23-2.9.01-6.16-.22-8.66q-.57-6.18-.91-12.33l.15-5.79q.58.79.4 2.21-.06.42.37.45c.92.07.54-31.1.97-39.6q.07-1.54.16 0c.38 6.81-.1 15.09-.05 20.35q.07 6.31.16 12.61a.55.55 0 0 0 .59.54q.51-.04.83-.55Z"/><path fill="#505050" d="m417.75 994.74 1.17 4.18.18 1.3-.42 3.77-.93-9.25Z"/><path fill="#94989b" d="M419.1 1000.22q.07 1.53.74 2.01l-.15 5.79-1.01-4.03.42-3.77Z"/></svg>